<?xml version="1.0" standalone="no"?>
<!DOCTYPE svg PUBLIC "-//W3C//DTD SVG 20010904//EN"
 "http://www.w3.org/TR/2001/REC-SVG-20010904/DTD/svg10.dtd">
<svg version="1.0" xmlns="http://www.w3.org/2000/svg"
 width="258.000000pt" height="258.000000pt" viewBox="0 0 258.000000 258.000000"
 preserveAspectRatio="xMidYMid meet">
<metadata>
Created by potrace 1.14, written by Peter Selinger 2001-2017
</metadata>
<g transform="translate(0.000000,258.000000) scale(0.100000,-0.100000)"
fill="#000000" stroke="none">
<path d="M670 2014 c-30 -8 -66 -16 -80 -19 -14 -3 -36 -7 -50 -10 -14 -3 -36
-8 -50 -11 -14 -3 -53 -11 -86 -19 -34 -8 -73 -16 -85 -19 -13 -2 -88 -18
-167 -35 -78 -17 -145 -31 -148 -31 -3 0 290 -297 652 -660 l659 -660 627 627
c345 345 626 629 624 631 -2 2 -28 -4 -59 -13 -30 -8 -63 -17 -73 -19 -11 -2
-80 -20 -154 -40 -74 -20 -146 -39 -160 -42 -14 -3 -38 -9 -55 -14 -105 -32
-468 -120 -496 -120 -69 0 -184 72 -324 201 -110 102 -218 184 -294 222 -73
36 -92 42 -155 43 -39 1 -96 -5 -126 -12z"/>
</g>
</svg>
