<svg width="167" height="45" viewBox="0 0 167 45" fill="none" xmlns="http://www.w3.org/2000/svg">
<path d="M6.15735 13.3849C12.628 13.3849 16.0199 17.4612 16.0199 22.3591C16.0199 27.2354 12.4119 31.3333 6.10334 31.3333H0V13.3849H6.15735ZM6.02773 28.0247C10.2623 28.0247 12.1851 25.4731 12.1851 22.3591C12.1851 19.0181 10.111 16.6935 6.02773 16.6935H3.77003V28.0139H6.02773V28.0247Z" fill="white"/>
<path d="M31.0459 31.3333H27.6216V29.7548H27.5136C26.7034 30.836 25.4611 31.755 23.4087 31.755C20.9673 31.755 17.6726 29.7764 17.6726 25.019C17.6726 20.9644 20.4596 18.3802 23.6679 18.3802C25.6448 18.3802 26.8222 19.3534 27.5136 20.3589H27.6216V18.7262H31.0459V31.3333ZM24.5213 28.6735C26.2065 28.6735 27.6756 27.2031 27.6756 25.0622C27.6756 22.8457 26.3037 21.3969 24.5429 21.3969C22.3284 21.3969 21.2806 23.2133 21.2806 25.0298C21.2806 26.8895 22.3068 28.6735 24.5213 28.6735Z" fill="white"/>
<path d="M33.0118 18.7262H34.5349V14.6932H38.1105V18.7262H41.0812V21.732H38.1105V26.63C38.1105 28.1004 38.5534 28.5005 39.6876 28.5005C40.163 28.5005 40.7679 28.4248 41.2108 28.2951V31.1928C40.4762 31.3982 39.4716 31.5387 38.737 31.5387C35.5827 31.5387 34.5241 29.7439 34.5241 27.0084V21.7428H33.001V18.7262H33.0118Z" fill="white"/>
<path d="M43.4041 18.7262H46.9581V31.3333H43.4041V18.7262Z" fill="white"/>
<path d="M50.2205 18.7262H53.7204V20.3048H53.8285C54.6926 18.91 56.1186 18.3261 57.5661 18.3261C60.4071 18.3261 62.3839 20.2183 62.3839 24.089V31.3333H58.8299V24.3269C58.8299 22.4348 57.9334 21.4617 56.4642 21.4617C54.9087 21.4617 53.7852 22.5645 53.7852 24.6729V31.3333H50.2313L50.2205 18.7262Z" fill="white"/>
<path d="M78.0473 30.944C78.0473 35.6257 75.9408 38.1017 71.285 38.1017C67.7634 38.1017 65.4193 36.1772 64.944 33.0416H68.498C68.7572 34.2526 69.6538 35.2041 71.5011 35.2041C73.6291 35.2041 74.7418 33.8633 74.7418 31.409V29.7979H74.6661C73.8236 30.8035 72.5921 31.6144 70.6369 31.6144C67.3745 31.6144 64.6956 29.0627 64.6956 24.9757C64.6956 21.1806 67.2989 18.3153 70.7989 18.3153C72.7973 18.3153 73.9856 19.3425 74.6121 20.2399H74.7418V18.7154H78.0581V30.944H78.0473ZM71.5011 28.5221C73.2618 28.5221 74.7094 27.0732 74.7094 24.9973C74.7094 22.8348 73.3158 21.4184 71.5227 21.4184C69.3946 21.4184 68.2819 23.2133 68.2819 24.9757C68.2927 26.7056 69.2866 28.5221 71.5011 28.5221Z" fill="white"/>
<path d="M99.1226 21.7536V21.9915C99.1226 27.6788 95.6227 31.9172 89.9946 31.9172C84.4422 31.9172 80.7046 27.3868 80.7046 22.3591C80.7046 17.1476 84.6799 12.8011 90.0162 12.8011C94.4344 12.8011 97.2754 15.0392 98.4853 18.0126H96.0656C95.1474 16.088 92.9869 14.7473 90.0162 14.7473C85.6197 14.7473 82.9623 18.1964 82.9623 22.251C82.9623 26.9327 86.095 29.971 90.1675 29.971C93.8295 29.971 96.4761 27.3111 96.8001 23.7539H89.1196V21.7536H99.1226Z" fill="white"/>
<path d="M108.456 20.3048C108.143 20.2508 107.797 20.1751 107.246 20.1751C105.431 20.1751 104.005 21.4617 104.005 24.6514V31.3442H101.931V18.7262H104.005V20.3048H104.059C104.481 19.4615 105.745 18.3046 107.397 18.3046C107.84 18.3046 108.164 18.3262 108.445 18.3803L108.456 20.3048Z" fill="white"/>
<path d="M116.007 18.3046C119.928 18.3046 122.736 21.2023 122.736 25.019C122.736 28.7276 119.895 31.7875 116.007 31.7875C112.193 31.7875 109.277 28.8357 109.277 25.019C109.266 21.1266 112.215 18.3046 116.007 18.3046ZM116.007 29.8845C118.664 29.8845 120.587 27.7761 120.587 25.019C120.587 22.3592 118.772 20.1751 116.007 20.1751C113.328 20.1751 111.426 22.2294 111.426 25.019C111.426 27.8626 113.587 29.8845 116.007 29.8845Z" fill="white"/>
<path d="M136.078 31.3333H134.004V29.7763H133.95C132.848 31.2792 131.454 31.7766 130.137 31.7766C127.922 31.7766 125.351 30.3494 125.351 26.0894V18.7154H127.425V25.9272C127.425 28.4789 128.635 29.8736 130.482 29.8736C132.643 29.8736 134.004 28.3707 134.004 25.4514V18.7154H136.078V31.3333Z" fill="white"/>
<path d="M139.707 18.7262H141.781V20.5211H141.835C142.678 19.5155 144.017 18.3046 146.567 18.3046C150.596 18.3046 152.908 21.5915 152.908 25.019C152.908 28.8357 150.175 31.7875 146.491 31.7875C144.331 31.7875 142.754 30.7603 141.835 29.6574H141.781V37.5288H139.707V18.7262ZM146.124 20.121C143.596 20.121 141.598 22.0997 141.598 25.0947C141.598 27.9599 143.758 29.9386 146.178 29.9386C149.235 29.9386 150.758 27.4409 150.758 25.019C150.758 22.5754 149.224 20.121 146.124 20.121Z" fill="white"/>
<path d="M155.619 13.3849H159.778V14.5959H158.33V18.9641H157.012V14.5959H155.619V13.3849ZM166.767 18.9641H165.427L165.265 15.8826C165.244 15.2987 165.244 14.877 165.244 14.5959H165.168C165.093 14.8879 165.06 15.2771 164.877 15.8826L163.872 18.9641H162.716L161.819 16.0664C161.582 15.2987 161.506 14.877 161.452 14.5959H161.398C161.398 14.8879 161.398 15.3636 161.377 15.9691L161.193 18.9749H159.853L160.35 13.3958H162.144L163.062 16.1853C163.245 16.7367 163.299 16.9206 163.321 17.1044H163.343C163.418 16.8449 163.472 16.6286 163.634 16.1529L164.531 13.3849H166.324L166.767 18.9641Z" fill="white"/>
<path d="M48.2434 5.04869C45.5536 5.6758 42.4101 -0.703439 38.6509 0.064232L30.8516 1.75095L45.0675 15.9907L58.7109 2.33481C58.7109 2.324 49.8853 4.67026 48.2434 5.04869Z" fill="#FA009F"/>
<path d="M87.4774 42.7834H83.3617L82.6163 44.9026H80.9312L84.5283 35.2797H86.3431L89.9295 44.9026H88.2444L87.4774 42.7834ZM87.0345 41.5616L85.4141 36.9989L83.7938 41.5616H87.0345Z" fill="white"/>
<path d="M92.9977 35.9933C92.7492 36.2204 92.6196 36.6096 92.6196 37.1503V37.28H94.294V38.6315H92.6196V44.9027H91.0317V38.6315H89.9946V37.28H91.0317V37.0313C91.0317 36.1015 91.3017 35.3987 91.8526 34.9337C92.3928 34.4688 93.2137 34.2634 94.3048 34.3174V35.7014C93.6782 35.669 93.2462 35.7663 92.9977 35.9933Z" fill="white"/>
<path d="M97.4804 35.9933C97.232 36.2204 97.1023 36.6096 97.1023 37.1503V37.28H98.7767V38.6315H97.1023V44.9027H95.5144V38.6315H94.4773V37.28H95.5144V37.0313C95.5144 36.1015 95.7844 35.3987 96.3353 34.9337C96.8755 34.4688 97.6965 34.2634 98.7875 34.3174V35.7014C98.161 35.669 97.7289 35.7663 97.4804 35.9933Z" fill="white"/>
<path d="M99.7596 34.3931C99.9433 34.2201 100.192 34.1336 100.494 34.1336C100.797 34.1336 101.045 34.2201 101.229 34.3931C101.412 34.5661 101.51 34.7932 101.51 35.0527C101.51 35.323 101.412 35.5392 101.229 35.7014C101.034 35.8636 100.797 35.9501 100.494 35.9501C100.192 35.9501 99.9433 35.8636 99.7596 35.7014C99.576 35.5392 99.4788 35.323 99.4788 35.0527C99.4788 34.7932 99.576 34.5661 99.7596 34.3931ZM101.283 37.2692V44.8918H99.7056V37.2692H101.283Z" fill="white"/>
<path d="M104.416 34.6526V44.8919H102.839V34.6526H104.416Z" fill="white"/>
<path d="M106.036 34.3931C106.219 34.2201 106.468 34.1336 106.77 34.1336C107.073 34.1336 107.321 34.2201 107.505 34.3931C107.689 34.5661 107.786 34.7932 107.786 35.0527C107.786 35.323 107.689 35.5392 107.505 35.7014C107.31 35.8636 107.073 35.9501 106.77 35.9501C106.468 35.9501 106.219 35.8636 106.036 35.7014C105.852 35.5392 105.755 35.323 105.755 35.0527C105.755 34.7932 105.852 34.5661 106.036 34.3931ZM107.559 37.2692V44.8918H105.982V37.2692H107.559Z" fill="white"/>
<path d="M113.943 37.6908C114.429 38.0368 114.775 38.4801 114.98 39.0424V37.2692H116.557V44.8918H114.98V43.1186C114.775 43.6809 114.429 44.135 113.943 44.4702C113.457 44.8162 112.863 44.9783 112.171 44.9783C111.513 44.9783 110.918 44.8162 110.4 44.5026C109.881 44.189 109.471 43.7349 109.179 43.1511C108.888 42.5564 108.736 41.8644 108.736 41.0643C108.736 40.275 108.888 39.583 109.179 38.9883C109.471 38.3936 109.881 37.9503 110.4 37.6368C110.918 37.3232 111.513 37.161 112.171 37.161C112.863 37.1719 113.457 37.3448 113.943 37.6908ZM110.983 39.2262C110.562 39.6695 110.357 40.2858 110.357 41.0751C110.357 41.8644 110.562 42.4807 110.983 42.924C111.405 43.3673 111.966 43.5944 112.668 43.5944C113.111 43.5944 113.511 43.4862 113.857 43.2808C114.202 43.0754 114.483 42.7834 114.688 42.405C114.894 42.0266 114.991 41.5833 114.991 41.0751C114.991 40.5777 114.894 40.1344 114.688 39.756C114.483 39.3776 114.213 39.0748 113.857 38.8694C113.511 38.664 113.111 38.5558 112.668 38.5558C111.955 38.5558 111.394 38.7829 110.983 39.2262Z" fill="white"/>
<path d="M121.937 43.5295V44.9027H120.965C120.155 44.9027 119.539 44.708 119.118 44.3188C118.696 43.9296 118.491 43.27 118.491 42.3618V38.6207H117.4V37.28H118.491V35.3879H120.079V37.28H121.916V38.6207H120.079V42.3834C120.079 42.8159 120.155 43.1186 120.317 43.2808C120.479 43.443 120.76 43.5295 121.17 43.5295H121.937Z" fill="white"/>
<path d="M130.093 41.3995H124.227C124.26 42.1888 124.476 42.7619 124.876 43.1403C125.286 43.5187 125.783 43.7025 126.388 43.7025C126.917 43.7025 127.36 43.5728 127.727 43.3025C128.095 43.0322 128.311 42.6754 128.397 42.2321H130.082C129.985 42.7727 129.769 43.2376 129.445 43.6593C129.121 44.0702 128.7 44.3945 128.192 44.6324C127.673 44.8703 127.101 44.9892 126.463 44.9892C125.729 44.9892 125.07 44.827 124.508 44.5135C123.946 44.1999 123.493 43.7458 123.169 43.1619C122.845 42.5672 122.683 41.8753 122.683 41.0751C122.683 40.2858 122.845 39.5939 123.169 38.9992C123.493 38.4045 123.936 37.9612 124.508 37.6476C125.07 37.3341 125.729 37.1719 126.463 37.1719C127.209 37.1719 127.857 37.3233 128.419 37.6368C128.98 37.9504 129.402 38.3721 129.704 38.9127C130.007 39.4533 130.158 40.0588 130.158 40.7183C130.147 40.9778 130.136 41.2049 130.093 41.3995ZM128.3 39.4209C128.105 39.0857 127.857 38.837 127.522 38.6748C127.198 38.5126 126.842 38.4369 126.453 38.4369C125.837 38.4369 125.318 38.6316 124.908 38.9992C124.497 39.3776 124.271 39.9399 124.227 40.6751H128.559C128.581 40.1777 128.494 39.756 128.3 39.4209Z" fill="white"/>
<path d="M135.98 37.8639C136.52 38.318 136.844 38.9343 136.974 39.702H135.483C135.419 39.2911 135.246 38.9559 134.954 38.6964C134.662 38.4478 134.273 38.318 133.798 38.318C133.398 38.318 133.096 38.4153 132.88 38.5991C132.664 38.7938 132.556 39.0424 132.556 39.3668C132.556 39.6047 132.632 39.7993 132.794 39.9507C132.956 40.102 133.15 40.2102 133.377 40.2967C133.615 40.3832 133.949 40.4697 134.382 40.5778C134.954 40.7075 135.419 40.8373 135.775 40.9778C136.131 41.1184 136.434 41.3346 136.682 41.6374C136.931 41.9401 137.06 42.351 137.06 42.8592C137.06 43.4971 136.823 44.0161 136.337 44.4053C135.851 44.8054 135.202 45 134.382 45C133.431 45 132.664 44.7838 132.081 44.3405C131.497 43.8972 131.141 43.2809 131.022 42.4807H132.556C132.599 42.8916 132.783 43.2376 133.107 43.4863C133.431 43.7458 133.852 43.8755 134.382 43.8755C134.76 43.8755 135.051 43.7782 135.278 43.5728C135.494 43.3782 135.602 43.1187 135.602 42.8159C135.602 42.5456 135.516 42.3402 135.354 42.178C135.192 42.0158 134.976 41.8969 134.727 41.8104C134.479 41.7239 134.133 41.6374 133.701 41.5401C133.15 41.4103 132.696 41.2806 132.351 41.1508C132.005 41.0211 131.713 40.8156 131.465 40.5237C131.216 40.2318 131.098 39.8425 131.098 39.3452C131.098 38.6964 131.335 38.1774 131.821 37.7774C132.307 37.3773 132.977 37.1719 133.831 37.1719C134.716 37.1719 135.44 37.399 135.98 37.8639Z" fill="white"/>
</svg>
